HIERARCHY
ROOT Hips
{
  OFFSET -168.707 104.514 186.296
  CHANNELS 6 Xposition Yposition Zposition Zrotation Xrotation Yrotation
  JOINT ToSpine
  {
    OFFSET -2.69724 7.43032 -0.144315
    CHANNELS 3 Zrotation Xrotation Yrotation
    JOINT Spine
    {
      OFFSET -0.0310711 10.7595 1.96963
      CHANNELS 3 Zrotation Xrotation Yrotation
      JOINT Spine1
      {
        OFFSET 19.9056 3.91189 0.764692
        CHANNELS 3 Zrotation Xrotation Yrotation
        JOINT Neck
        {
          OFFSET 25.9749 7.03908 -0.130764
          CHANNELS 3 Zrotation Xrotation Yrotation
          JOINT Head
          {
            OFFSET 9.52751 0.295786 -0.907742
            CHANNELS 3 Zrotation Xrotation Yrotation
            End Site
            {
              OFFSET 16.4037 0.713936 2.7358
            }
          }
        }
        JOINT LeftShoulder
        {
          OFFSET 17.7449 4.33886 11.7777
          CHANNELS 3 Zrotation Xrotation Yrotation
          JOINT LeftArm
          {
            OFFSET 0.911315 1.27913 9.80584
            CHANNELS 3 Zrotation Xrotation Yrotation
            JOINT LeftForeArm
            {
              OFFSET 28.6126 1.18197 -3.53199
              CHANNELS 3 Zrotation Xrotation Yrotation
              JOINT LeftHand
              {
                OFFSET 27.5088 0.0218783 0.327423
                CHANNELS 3 Zrotation Xrotation Yrotation
                End Site
                {
                  OFFSET 18.6038 -0.000155887 0.382096
                }
              }
            }
          }
        }
        JOINT RightShoulder
        {
          OFFSET 17.1009 2.89543 -12.2328
          CHANNELS 3 Zrotation Xrotation Yrotation
          JOINT RightArm
          {
            OFFSET 1.4228 0.178766 -10.211
            CHANNELS 3 Zrotation Xrotation Yrotation
            JOINT RightForeArm
            {
              OFFSET 28.733 1.87905 2.64907
              CHANNELS 3 Zrotation Xrotation Yrotation
              JOINT RightHand
              {
                OFFSET 27.4588 0.290562 -0.101845
                CHANNELS 3 Zrotation Xrotation Yrotation
                End Site
                {
                  OFFSET 17.8396 -0.255518 -0.000602873
                }
              }
            }
          }
        }
      }
    }
  }
  JOINT LeftUpLeg
  {
    OFFSET -5.61296 -2.22332 -10.2353
    CHANNELS 3 Zrotation Xrotation Yrotation
    JOINT LeftLeg
    {
      OFFSET 2.56703 -44.7417 -7.93097
      CHANNELS 3 Zrotation Xrotation Yrotation
      JOINT LeftFoot
      {
        OFFSET 3.16933 -46.5642 -3.96578
        CHANNELS 3 Zrotation Xrotation Yrotation
        JOINT LeftToeBase
        {
          OFFSET 0.346054 -6.02161 12.8035
          CHANNELS 3 Zrotation Xrotation Yrotation
          End Site
          {
            OFFSET 0.134235 -1.35082 5.13018
          }
        }
      }
    }
  }
  JOINT RightUpLeg
  {
    OFFSET -5.7928 -1.72406 10.6446
    CHANNELS 3 Zrotation Xrotation Yrotation
    JOINT RightLeg
    {
      OFFSET -2.57161 -44.7178 -7.85259
      CHANNELS 3 Zrotation Xrotation Yrotation
      JOINT RightFoot
      {
        OFFSET -3.10148 -46.5936 -4.03391
        CHANNELS 3 Zrotation Xrotation Yrotation
        JOINT RightToeBase
        {
          OFFSET -0.0828122 -6.13587 12.8035
          CHANNELS 3 Zrotation Xrotation Yrotation
          End Site
          {
            OFFSET -0.131328 -1.35082 5.13018
          }
        }
      }
    }
  }
}
MOTION
Frames:	6
Frame Time:	0.0333333
-64.6907 101.742 63.8804 -65.1571 -56.4592 -152.747 -70.1915 0 88.8779 90.4123 67.011 -0.921275 3.45053 14.7903 8.32176 -140.477 17.7291 170.736 -146.726 53.8963 162.027 1.9861 -5.73127 -35.1633 -63.8848 39.4068 -121.253 4.27318 22.4314 -17.7811 4.08596 -0.0696164 -0.329698 0.792039 -2.75156 42.0129 -96.7633 -35.8034 72.8229 -5.66655 -20.8882 5.88411 4.78023 -0.289654 -8.34649 -70.4133 0.23336 77.5444 -1.83026 47.7335 2.73537 1.35811 5.29866 0.0398192 -16.578 -32.9265 -10.1938 -39.9979 5.53811 79.0425 1.91978 30.5014 -5.64659 -5.12143 5.69717 0.640383 0.66176 3.18776 -0.604356 
-67.5924 101.862 66.8065 -65.8237 -55.4312 -152.686 -70.1915 0 88.8779 92.8883 67.1931 -1.68079 2.8251 15.0954 8.38302 -140.887 18.0203 170.729 -147.486 54.3693 162.192 1.98619 -5.66668 -34.7973 -78.751 45.2002 -110.237 0.130654 34.6634 -12.8822 4.08424 -0.0732184 -0.423939 0.78389 -2.74818 41.6338 -94.5817 -36.1016 75.3014 -4.96959 -18.8836 7.966 5.44302 -0.320645 -7.98332 -65.9632 1.43137 79.5529 -2.45612 55.4897 5.00263 3.02138 9.89557 -0.0290314 -12.9432 -24.4077 -16.7349 -41.0804 6.93266 77.9244 1.93265 32.8626 -4.57152 -5.67226 3.09849 0.790667 0.911878 4.17152 -0.998429 
-70.2601 101.885 69.5447 -66.2172 -55.9283 -151.873 -70.1915 0 88.8779 96.97 66.9449 -4.2733 2.3802 15.0213 8.52767 -140.552 18.253 169.82 -147.009 54.691 162.097 1.94752 -5.87776 -35.0338 -90.7602 47.3587 -100.7 -4.20048 43.5653 -7.0676 2.69142 -0.0264794 0.357783 0.834117 -2.95176 41.3631 -90.3703 -37.0026 79.0544 -3.60007 -14.8271 11.2991 5.88647 -0.336526 -7.68596 -60.6875 1.38487 78.6719 -3.1235 63.5547 9.7545 3.94176 11.5241 -0.15719 -15.3929 -33.4368 -4.74208 -42.8278 7.85841 76.6435 2.2979 34.6929 -4.2805 -6.02597 1.51547 0.872779 0.564272 1.24129 -2.34617 
-72.9383 102.104 72.254 -67.5955 -56.026 -152.698 -70.1915 0 88.8779 100.986 67.0853 -7.34199 2.12779 15.4693 8.18139 -140.852 18.5584 169.069 -147.122 55.1553 162.055 1.88235 -6.19482 -35.2386 -95.6529 47.8168 -96.1595 -8.09285 47.8259 -1.2562 1.16954 -0.00431668 0.665758 0.829263 -2.9307 41.4055 -82.3878 -37.9489 85.1442 -2.0959 -8.22941 15.1761 8.28851 -0.460136 -7.23002 -55.9145 1.20356 79.2063 -4.00943 68.857 12.8894 5.26267 11.0575 -0.458222 -16.1403 -34.0239 -6.37281 -45.5259 9.20427 76.9121 2.16755 35.231 -4.51316 -6.33908 0.0348485 0.938801 0.142295 -1.0604 -2.65493 
-75.6663 102.476 75.0995 -68.9305 -55.8691 -154.384 -70.1915 0 88.8779 102.573 67.5633 -9.07566 2.20043 16.1329 7.97693 -140.253 18.8811 168.741 -147.82 55.8976 163.42 1.91397 -6.06657 -35.2955 -97.1632 48.0325 -94.0137 -11.7627 50.1023 3.88664 2.06828 -0.00816894 0.877807 0.790101 -2.79571 41.2819 -73.8974 -38.2102 91.349 -0.181611 -2.12774 19.0674 9.07673 -0.508348 -7.23902 -51.6679 0.126 80.1342 -5.14728 71.243 13.0567 5.09539 11.1637 -0.419399 -16.6997 -38.4697 -0.661426 -48.6135 9.88448 77.7116 1.97785 35.1865 -4.36008 -6.48116 -1.47398 0.978649 -0.162691 -2.77476 -3.05313 
-78.3917 102.804 77.8859 -69.2034 -54.3872 -155.446 -70.1915 0 88.8779 101.371 68.7067 -7.57547 2.26781 17.3647 7.37981 -138.51 18.9596 167.603 -146.234 55.9628 163.023 1.87323 -6.24081 -35.2809 -99.2058 48.0663 -90.7593 -14.3792 52.0328 7.71251 1.17303 0.00201242 1.15079 0.731935 -2.58695 41.1927 -69.3528 -37.7184 95.1782 1.91744 -0.229419 22.023 9.52781 -0.556535 -7.5068 -47.1733 -0.485308 81.9191 -5.2413 70.6641 11.9005 5.53059 10.0121 -0.540512 -19.7747 -40.4978 -6.71153 -50.8172 10.8772 79.0526 1.56773 34.6712 -3.69767 -6.76817 -2.27798 1.01998 -0.539354 -4.73054 -3.38793 
